<?xml version="1.0" encoding="UTF-8" standalone="no"?>
<svg
   xmlns:dc="http://purl.org/dc/elements/1.1/"
   xmlns:cc="http://creativecommons.org/ns#"
   xmlns:rdf="http://www.w3.org/1999/02/22-rdf-syntax-ns#"
   xmlns:svg="http://www.w3.org/2000/svg"
   xmlns="http://www.w3.org/2000/svg"
   xmlns:sodipodi="http://sodipodi.sourceforge.net/DTD/sodipodi-0.dtd"
   xmlns:inkscape="http://www.inkscape.org/namespaces/inkscape"
   width="146.03041mm"
   height="285.51529mm"
   viewBox="0 0 146.03041 285.51529"
   version="1.1"
   id="svg1043"
   inkscape:version="1.0.2 (e86c870879, 2021-01-15)"
   sodipodi:docname="icons.svg">
  <defs
     id="defs1037" />
  <sodipodi:namedview
     id="base"
     pagecolor="#ffffff"
     bordercolor="#66ff66"
     borderopacity="1"
     inkscape:pageopacity="0.0"
     inkscape:pageshadow="2"
     inkscape:zoom="0.3697552"
     inkscape:cx="-210.16361"
     inkscape:cy="502.44352"
     inkscape:document-units="mm"
     inkscape:current-layer="layer1"
     inkscape:document-rotation="0"
     showgrid="false"
     inkscape:showpageshadow="false"
     inkscape:window-width="2292"
     inkscape:window-height="1376"
     inkscape:window-x="573"
     inkscape:window-y="27"
     inkscape:window-maximized="0"
     inkscape:snap-bbox="true"
     inkscape:bbox-paths="true"
     inkscape:bbox-nodes="true"
     inkscape:snap-bbox-edge-midpoints="true"
     inkscape:snap-bbox-midpoints="true"
     inkscape:object-paths="true"
     inkscape:snap-intersection-paths="true"
     inkscape:snap-smooth-nodes="true"
     inkscape:snap-midpoints="true"
     inkscape:snap-object-midpoints="true"
     inkscape:snap-center="true"
     inkscape:snap-text-baseline="true"
     inkscape:snap-page="true"
     inkscape:snap-global="false" />
  <metadata
     id="metadata1040">
    <rdf:RDF>
      <cc:Work
         rdf:about="">
        <dc:format>image/svg+xml</dc:format>
        <dc:type
           rdf:resource="http://purl.org/dc/dcmitype/StillImage" />
        <dc:title />
      </cc:Work>
    </rdf:RDF>
  </metadata>
  <g
     inkscape:label="Capa 1"
     inkscape:groupmode="layer"
     id="layer1"
     transform="translate(-6.0590551,181.20672)">
    <g
       id="g858"
       transform="translate(6.0590551)"
       inkscape:export-xdpi="8.2792816"
       inkscape:export-ydpi="8.2792816">
      <path
         style="fill:#000000;stroke-width:1"
         d="M 74.27705,104.0146 C 73.7827,103.85548 62.71145,96.107588 49.67427,86.797078 L 25.97031,69.868881 15.8978,69.777881 C 6.3904797,69.691991 5.7530497,69.653449 4.5378197,69.090945 c -1.551,-0.717924 -2.93545,-2.05024 -3.78927998,-3.646584 -0.6171,-1.153751 -0.63296,-1.437166 -0.71436,-12.76721 -0.0799,-11.120437 -0.0595,-11.650732 0.50615,-13.162569 0.70361998,-1.880584 2.19442998,-3.501339 3.98075998,-4.327718 1.23624,-0.571908 1.82906,-0.608087 11.3767103,-0.694341 l 10.07251,-0.091 23.71318,-16.93478 C 66.00667,5.8095326 73.77343,0.4264736 74.60566,0.1934636 c 1.02305,-0.286435 1.3499,-0.265643 2.12501,0.135181 1.84062,0.951822 1.72721,-2.44977 1.72721,51.8065584 0,54.087307 0.10446,50.859367 -1.6757,51.779927 -0.96938,0.50128 -1.22522,0.51144 -2.50513,0.0995 z"
         id="path844" />
      <path
         style="fill:#000000;stroke-width:1"
         d="m 96.29496,100.98046 c -0.4709,-0.29239 -1.77688,-1.487555 -2.90217,-2.655925 -1.49145,-1.54854 -2.09841,-2.4037 -2.23938,-3.15513 -0.42491,-2.264955 -0.35282,-2.358624 9.23083,-11.993669 l 9.01482,-9.06318 -9.02552,-9.059292 c -9.68658,-9.722832 -9.71847,-9.764768 -9.20517,-12.104961 0.22727,-1.036189 3.95354,-5.113588 5.32646,-5.828378 0.92287,-0.480483 2.59557,-0.52201 3.45765,-0.08584 0.34286,0.173468 4.63484,4.312589 9.53773,9.198051 l 8.91435,8.882657 9.06543,-9.02728 c 9.72579,-9.684875 9.97113,-9.872581 12.23618,-9.36173 1.46839,0.331176 5.71099,4.530598 6.12427,6.061944 0.60455,2.240081 0.43386,2.463678 -9.3595,12.260629 l -9.06475,9.068066 8.88686,8.91855 c 4.88777,4.905206 9.02878,9.199073 9.20225,9.541927 0.17346,0.342855 0.31539,1.228955 0.31539,1.969116 0,1.31431 -0.0618,1.40849 -2.64827,4.03298 -2.31503,2.349105 -2.79766,2.707275 -3.83557,2.846495 -0.65302,0.0876 -1.54823,0.0694 -1.98937,-0.0405 -0.53314,-0.13275 -3.84173,-3.228705 -9.86749,-9.233324 l -9.06543,-9.033563 -8.91435,8.882657 c -4.90289,4.885465 -9.19487,9.02459 -9.53772,9.19806 -0.94863,0.47995 -2.70141,0.37531 -3.65753,-0.21836 z"
         id="path848" />
      <text
         xml:space="preserve"
         style="font-style:normal;font-variant:normal;font-weight:900;font-stretch:normal;font-size:59.5221px;line-height:1.25;font-family:Roboto;-inkscape-font-specification:'Roboto Heavy';fill:#000000;fill-opacity:1;stroke:none;stroke-width:0.264583"
         x="99.952477"
         y="42.27158"
         id="text852"><tspan
           sodipodi:role="line"
           id="tspan850"
           x="99.952477"
           y="42.27158"
           style="font-style:normal;font-variant:normal;font-weight:900;font-stretch:normal;font-family:Roboto;-inkscape-font-specification:'Roboto Heavy';stroke-width:0.264583">1</tspan></text>
    </g>
    <g
       id="g868"
       transform="translate(6.0590551,-181.20672)"
       inkscape:export-xdpi="8.2792816"
       inkscape:export-ydpi="8.2792816">
      <path
         style="fill:#000000;stroke-width:1"
         d="M 74.27705,104.0146 C 73.7827,103.85548 62.71145,96.107588 49.67427,86.797078 L 25.97031,69.868881 15.8978,69.777881 C 6.3904797,69.691991 5.7530497,69.653449 4.5378197,69.090945 c -1.551,-0.717924 -2.93545,-2.05024 -3.78927998,-3.646584 -0.6171,-1.153751 -0.63296,-1.437166 -0.71436,-12.76721 -0.0799,-11.120437 -0.0595,-11.650732 0.50615,-13.162569 0.70361998,-1.880584 2.19442998,-3.501339 3.98075998,-4.327718 1.23624,-0.571908 1.82906,-0.608087 11.3767103,-0.694341 l 10.07251,-0.091 23.71318,-16.93478 C 66.00667,5.8095326 73.77343,0.4264736 74.60566,0.1934636 c 1.02305,-0.286435 1.3499,-0.265643 2.12501,0.135181 1.84062,0.951822 1.72721,-2.44977 1.72721,51.8065584 0,54.087307 0.10446,50.859367 -1.6757,51.779927 -0.96938,0.50128 -1.22522,0.51144 -2.50513,0.0995 z"
         id="path860" />
      <path
         style="fill:#000000;stroke-width:1"
         d="m 96.29496,79.099629 c -0.4709,-0.29239 -1.77688,-1.487555 -2.90217,-2.655925 -1.49145,-1.54854 -2.09841,-2.4037 -2.23938,-3.15513 -0.42491,-2.264955 -0.35282,-2.358624 9.23083,-11.993669 l 9.01482,-9.06318 -9.02552,-9.059292 c -9.68658,-9.722832 -9.71847,-9.764768 -9.20517,-12.104961 0.22727,-1.036189 3.95354,-5.113588 5.32646,-5.828378 0.92287,-0.480483 2.59557,-0.52201 3.45765,-0.08584 0.34286,0.173468 4.63484,4.312589 9.53773,9.198051 l 8.91435,8.882657 9.06543,-9.02728 c 9.72579,-9.684875 9.97113,-9.872581 12.23618,-9.36173 1.46839,0.331176 5.71099,4.530598 6.12427,6.061944 0.60455,2.240081 0.43386,2.463678 -9.3595,12.260629 l -9.06475,9.068066 8.88686,8.91855 c 4.88777,4.905206 9.02878,9.199073 9.20225,9.541927 0.17346,0.342855 0.31539,1.228955 0.31539,1.969116 0,1.31431 -0.0618,1.40849 -2.64827,4.03298 -2.31503,2.349105 -2.79766,2.707275 -3.83557,2.846495 -0.65302,0.0876 -1.54823,0.0694 -1.98937,-0.0405 -0.53314,-0.13275 -3.84173,-3.228705 -9.86749,-9.233324 l -9.06543,-9.033563 -8.91435,8.882657 c -4.90289,4.885465 -9.19487,9.02459 -9.53772,9.19806 -0.94863,0.47995 -2.70141,0.37531 -3.65753,-0.21836 z"
         id="path862" />
    </g>
    <g
       id="g853"
       inkscape:export-xdpi="8"
       inkscape:export-ydpi="8">
      <g
         id="g842"
         transform="translate(-202.77045,-177.2778)"
         inkscape:export-xdpi="8.2792816"
         inkscape:export-ydpi="8.2792816">
        <path
           style="fill:#000000;stroke-width:1"
           d="M 74.27705,104.0146 C 73.7827,103.85548 62.71145,96.107588 49.67427,86.797078 L 25.97031,69.868881 15.8978,69.777881 C 6.3904797,69.691991 5.7530497,69.653449 4.5378197,69.090945 c -1.551,-0.717924 -2.93545,-2.05024 -3.78927998,-3.646584 -0.6171,-1.153751 -0.63296,-1.437166 -0.71436,-12.76721 -0.0799,-11.120437 -0.0595,-11.650732 0.50615,-13.162569 0.70361998,-1.880584 2.19442998,-3.501339 3.98075998,-4.327718 1.23624,-0.571908 1.82906,-0.608087 11.3767103,-0.694341 l 10.07251,-0.091 23.71318,-16.93478 C 66.00667,5.8095326 73.77343,0.4264736 74.60566,0.1934636 c 1.02305,-0.286435 1.3499,-0.265643 2.12501,0.135181 1.84062,0.951822 1.72721,-2.44977 1.72721,51.8065584 0,54.087307 0.10446,50.859367 -1.6757,51.779927 -0.96938,0.50128 -1.22522,0.51144 -2.50513,0.0995 z"
           id="path838" />
      </g>
      <path
         style="opacity:1;fill:none;stroke:#000000;stroke-width:11.5;stroke-miterlimit:4;stroke-dasharray:none;stop-color:#000000"
         id="path845"
         sodipodi:type="arc"
         sodipodi:cx="-114.48082"
         sodipodi:cy="-122.5965"
         sodipodi:rx="21.449608"
         sodipodi:ry="22.829496"
         sodipodi:start="4.7486019"
         sodipodi:end="1.506311"
         sodipodi:arc-type="arc"
         d="m -113.70424,-145.41103 a 21.449608,22.829496 0 0 1 20.670885,22.49182 21.449608,22.829496 0 0 1 -20.065235,23.10476"
         sodipodi:open="true" />
      <path
         style="opacity:1;fill:none;stroke:#000000;stroke-width:11.5;stroke-miterlimit:4;stroke-dasharray:none;stop-color:#000000"
         id="path847"
         sodipodi:type="arc"
         sodipodi:cx="-117.53604"
         sodipodi:cy="-122.36205"
         sodipodi:rx="44.113216"
         sodipodi:ry="42.345135"
         sodipodi:start="4.9637707"
         sodipodi:end="1.2947855"
         sodipodi:arc-type="arc"
         d="m -106.56321,-163.37627 a 44.113216,42.345135 0 0 1 33.13704,40.49277 44.113216,42.345135 0 0 1 -32.08815,41.263828"
         sodipodi:open="true" />
    </g>
  </g>
</svg>
