<?xml version="1.0" encoding="UTF-8" standalone="no"?>
<!-- Created with Inkscape (http://www.inkscape.org/) -->

<svg
   width="128mm"
   height="128mm"
   viewBox="0 0 128 128"
   version="1.1"
   id="svg5"
   sodipodi:docname="logo.svg"
   inkscape:export-filename="/home/oscar/repos/lmms/plugins/looper/logo.png"
   inkscape:export-xdpi="9.5200005"
   inkscape:export-ydpi="9.5200005"
   inkscape:version="1.1.1 (1:1.1+202109281949+c3084ef5ed)"
   xmlns:inkscape="http://www.inkscape.org/namespaces/inkscape"
   xmlns:sodipodi="http://sodipodi.sourceforge.net/DTD/sodipodi-0.dtd"
   xmlns="http://www.w3.org/2000/svg"
   xmlns:svg="http://www.w3.org/2000/svg">
  <sodipodi:namedview
     id="namedview7"
     pagecolor="#00293c"
     bordercolor="#ffffff"
     borderopacity="0.41568627"
     inkscape:pageshadow="2"
     inkscape:pageopacity="0.34509804"
     inkscape:pagecheckerboard="0"
     inkscape:document-units="mm"
     showgrid="false"
     fit-margin-top="0"
     fit-margin-left="0"
     fit-margin-right="0"
     fit-margin-bottom="0"
     inkscape:showpageshadow="false"
     showborder="true"
     inkscape:zoom="0.55411055"
     inkscape:cx="296.87217"
     inkscape:cy="323.94258"
     inkscape:window-width="1600"
     inkscape:window-height="836"
     inkscape:window-x="0"
     inkscape:window-y="27"
     inkscape:window-maximized="1"
     inkscape:current-layer="layer1" />
  <defs
     id="defs2" />
  <g
     inkscape:label="Layer 1"
     inkscape:groupmode="layer"
     id="layer1"
     transform="translate(-309.41626,-63.263465)">
    <path
       style="fill:#ffffff;stroke:#ffffff;stroke-width:6;stroke-miterlimit:4;stroke-dasharray:none;stroke-opacity:1"
       d="m 339.15972,160.57664 c -6.51501,-1.01392 -12.83827,-4.2428 -17.59657,-8.98542 -14.3426,-14.29533 -11.09136,-38.61009 6.50929,-48.68042 4.57693,-2.61871 9.61717,-3.968075 14.92373,-3.995335 5.13351,-0.0264 9.26253,0.99561 13.93386,3.448785 9.08791,4.77255 14.85786,13.07581 17.93636,25.81135 1.21412,5.02272 1.79796,6.823 3.17524,9.79078 3.12921,6.74289 8.48294,12.04283 14.96963,14.81925 4.54167,1.94391 9.10677,2.7416 13.03719,2.27806 6.12661,-0.72255 11.11408,-3.1948 15.52897,-7.69758 2.70838,-2.7623 4.50338,-5.65377 5.71077,-9.19919 1.06693,-3.13294 1.42898,-5.26219 1.42898,-8.40382 0,-3.14162 -0.36205,-5.27087 -1.42898,-8.40381 -1.23966,-3.64018 -2.99907,-6.44957 -5.84306,-9.33007 -3.77203,-3.82046 -7.95579,-6.05752 -13.38691,-7.15801 -2.94966,-0.59768 -8.26848,-0.40199 -11.08705,0.40789 -3.64803,1.04823 -10.58118,4.79395 -9.50885,5.13727 0.2094,0.067 2.2262,0.38494 4.48177,0.70646 2.25557,0.32151 4.48539,0.74064 4.95514,0.9314 0.88613,0.35984 1.92132,1.74578 1.92304,2.57463 0.002,0.8319 -0.77429,2.01423 -1.60345,2.44301 -0.74825,0.38693 -1.36116,0.34216 -9.18979,-0.67126 l -8.38807,-1.08586 -0.8794,-0.86953 c -0.60868,-0.60184 -0.91814,-1.18799 -1.00521,-1.90395 -0.19103,-1.57091 1.89553,-16.610495 2.41436,-17.402335 0.55885,-0.85291 2.09077,-1.57494 2.85053,-1.34352 0.7875,0.23986 1.4849,0.87942 1.95928,1.79676 0.34999,0.67681 0.33066,1.208 -0.18607,5.111265 -0.31716,2.39577 -0.51422,4.41838 -0.43792,4.49468 0.0763,0.0763 0.77293,-0.33483 1.54805,-0.91364 7.90881,-5.905815 20.1746,-7.160955 29.93491,-3.0632 6.88775,2.89174 13.03856,9.10403 16.0721,16.23273 1.52007,3.5721 2.13138,6.40828 2.29005,10.62453 0.17655,4.6917 -0.15449,7.29021 -1.4112,11.07727 -3.45187,10.40205 -11.35525,17.68849 -22.30301,20.56202 -3.33158,0.87446 -8.7635,0.98098 -12.19334,0.2391 -12.95547,-2.80227 -22.36856,-11.01922 -26.70853,-23.31466 -0.46229,-1.30969 -1.26157,-4.1013 -1.77618,-6.20358 -1.19165,-4.86816 -2.18405,-7.68212 -3.8721,-10.97932 -3.85836,-7.53641 -9.66839,-12.35942 -17.25482,-14.32353 -2.3781,-0.61569 -2.98899,-0.67132 -6.08316,-0.55396 -2.64733,0.10042 -3.97516,0.28872 -5.76483,0.81753 -9.90049,2.92537 -16.83708,11.00897 -18.19843,21.20764 -0.78101,5.85097 0.88764,12.81849 4.23511,17.68388 5.12786,7.45308 14.61046,11.7965 23.53794,10.78134 6.10442,-0.69414 11.00767,-3.10758 15.43926,-7.59938 1.7812,-1.80541 2.4144,-2.28115 3.20742,-2.40984 1.7807,-0.28897 3.07582,0.94996 3.07582,2.94236 0,0.80096 -0.27502,1.22791 -1.87784,2.91526 -4.33259,4.56109 -9.25228,7.42198 -15.56517,9.05143 -2.85813,0.73773 -8.70355,1.04424 -11.52886,0.60454 z"
       id="path946" />
  </g>
</svg>
